<?xml version="1.0" encoding="utf-8"?>
<!-- Generator: Adobe Illustrator 20.0.0, SVG Export Plug-In . SVG Version: 6.00 Build 0)  -->
<svg version="1.1" id="圖層_1" xmlns="http://www.w3.org/2000/svg" xmlns:xlink="http://www.w3.org/1999/xlink" x="0px" y="0px"
	 viewBox="0 0 50 50" style="enable-background:new 0 0 50 50;" xml:space="preserve">
<style type="text/css">
	.st0{display:none;}
	.st1{display:inline;fill:#3B0104;}
	.st2{fill:none;stroke:#FFFFFF;stroke-width:3;stroke-linecap:round;stroke-linejoin:round;stroke-miterlimit:10;}
	.st3{fill:none;stroke:#FFFFFF;stroke-width:2;stroke-linecap:round;stroke-linejoin:round;stroke-miterlimit:10;}
</style>
<g id="圖層_3" class="st0">
	<rect class="st1" width="50" height="50"/>
</g>
<g id="圖層_4">
	<path class="st2" d="M35.2,10.9c0,0-3.5-3.3-10.2-3.3C17.9,7.6,7.6,13.1,7.6,25c0,12.6,11,17.4,17.4,17.4c7.1,0,17.4-3.6,17.4-17.4
		c0,0,0.3-2.7-0.9-5.4"/>
	<path class="st2" d="M31.2,30c-0.9,1.2-2.8,2.5-5.9,2.5c-6,0-7.5-5.1-7.5-7.7c0-2.8,2-7.2,7.5-7.2c0,0,5.3-0.3,6.5,6.4H18.1"/>
	<path class="st2" d="M47.7,30.6"/>
	<path class="st2" d="M49.8,25.4"/>
	<line class="st3" x1="25.3" y1="17.3" x2="25.3" y2="13.3"/>
	<line class="st3" x1="25.3" y1="36.8" x2="25.3" y2="32.8"/>
</g>
<g id="圖層_5" class="st0">
</g>
</svg>
