<?xml version="1.0" encoding="utf-8"?>
<!-- Generator: Adobe Illustrator 20.0.0, SVG Export Plug-In . SVG Version: 6.00 Build 0)  -->
<svg version="1.1" id="圖層_1" xmlns="http://www.w3.org/2000/svg" xmlns:xlink="http://www.w3.org/1999/xlink" x="0px" y="0px"
	 viewBox="0 0 50 50" style="enable-background:new 0 0 50 50;" xml:space="preserve">
<style type="text/css">
	.st0{display:none;}
	.st1{display:inline;}
	.st2{display:none;opacity:0.3;}
	.st3{clip-path:url(#SVGID_2_);}
	.st4{fill:none;stroke:#FFFFFF;stroke-width:3;stroke-linecap:round;stroke-linejoin:round;stroke-miterlimit:10;}
	.st5{fill:none;stroke:#5A5B5B;stroke-width:3;stroke-linecap:round;stroke-linejoin:round;stroke-miterlimit:10;}
	.st6{fill:#FFFFFF;}
</style>
<g id="圖層_3" class="st0">
	<rect class="st1" width="50.3" height="50"/>
</g>
<g id="圖層_1_1_" class="st2">
	<g class="st1">
		<g>
			<g>
				<defs>
					<rect id="SVGID_1_" x="1.5" y="2.9" width="45.9" height="46"/>
				</defs>
				<clipPath id="SVGID_2_">
					<use xlink:href="#SVGID_1_"  style="overflow:visible;"/>
				</clipPath>
				<path class="st3" d="M46.8,21.9l-4-3.5V14c0-0.9-0.7-1.6-1.6-1.6c-0.9,0-1.6,0.7-1.6,1.6v1.7L25.5,3.4l0,0
					c-0.1-0.1-0.2-0.2-0.3-0.2l0,0c0,0,0,0-0.1,0l0,0c0,0,0,0-0.1,0l0,0c0,0,0,0-0.1,0l0,0l0,0l0,0l0,0l0,0l0,0l0,0c0,0,0,0-0.1,0
					l0,0c0,0,0,0-0.1,0l0,0c-0.3,0-0.5,0-0.7,0.1l0,0c0,0,0,0-0.1,0l0,0l0,0l0,0l0,0l0,0l0,0c0,0,0,0-0.1,0l0,0c0,0,0,0-0.1,0l0,0
					c0,0,0,0-0.1,0l0,0L8.7,16.1v-1.6c0-0.9-0.7-1.6-1.6-1.6s-1.6,0.7-1.6,1.6v4.3v0.1l-3.5,3c-0.7,0.6-0.7,1.6-0.2,2.3
					c0.3,0.4,0.8,0.6,1.2,0.6s0.7-0.1,1-0.4L24.4,6.7l20.3,17.6c0.3,0.3,0.7,0.4,1,0.4c0.4,0,0.9-0.2,1.2-0.6
					C47.6,23.5,47.5,22.5,46.8,21.9L46.8,21.9z"/>
			</g>
		</g>
		<path d="M41.5,24.4c-0.9,0-1.6,0.7-1.6,1.6v16c0,2-1.4,3.7-3,3.7H12c-1.6,0-3-1.7-3-3.7V26c0-0.9-0.7-1.6-1.6-1.6S5.8,25.1,5.8,26
			v16c0,3.8,2.8,6.9,6.2,6.9h24.9c3.4,0,6.2-3.1,6.2-6.9V26C43.1,25.2,42.4,24.4,41.5,24.4L41.5,24.4z"/>
		<path d="M18.2,20.4c-0.9,0-1.6,0.7-1.6,1.6v1.6c0,0.9,0.7,1.6,1.6,1.6s1.6-0.7,1.6-1.6V22C19.8,21.1,19.1,20.4,18.2,20.4
			L18.2,20.4z"/>
		<path d="M30.7,20.4c-0.9,0-1.6,0.7-1.6,1.6v1.6c0,0.9,0.7,1.6,1.6,1.6s1.6-0.7,1.6-1.6V22C32.3,21.1,31.6,20.4,30.7,20.4
			L30.7,20.4z"/>
		<path d="M28.4,27.6c-0.7-0.5-1.7-0.3-2.2,0.5c0,0-0.7,1-1.7,1s-1.7-0.9-1.7-1c-0.5-0.7-1.4-1-2.2-0.5c-0.8,0.5-1,1.5-0.5,2.2
			c0.6,0.9,2.2,2.5,4.4,2.5c2.3,0,3.8-1.6,4.4-2.5C29.3,29.1,29.1,28.1,28.4,27.6L28.4,27.6z"/>
	</g>
</g>
<g id="圖層_2">
	<polyline class="st4" points="7.8,22.7 24.9,7.6 42.2,22.7 	"/>
	<line class="st4" x1="35.2" y1="16.1" x2="35.2" y2="10.5"/>
	<path class="st4" d="M11.2,24.9v12.9c0,0-0.2,4.3,4.1,4.3h19.5c0,0,3.8-0.4,3.8-3.5c0-3.1,0-13.6,0-13.6"/>
	<path class="st4" d="M20.6,41.2v-9.4c0,0,0-3.5,4.4-3.5c0.6,0,1.6,0.1,2.2,0.4"/>
	<path class="st5" d="M26.5,28.7"/>
	<line class="st4" x1="20.6" y1="41.2" x2="20.6" y2="31.9"/>
	<g>
		<path class="st6" d="M29.4,42.4c-0.6,0-1.2-0.6-1.2-1.2V33c0-0.3,0.2-1.1,1.2-1.1c1.2,0,1.2,1,1.2,1.2v8.2
			C30.6,41.9,30.1,42.4,29.4,42.4z"/>
	</g>
</g>
</svg>
