<?xml version="1.0" encoding="utf-8"?>
<!-- Generator: Adobe Illustrator 20.0.0, SVG Export Plug-In . SVG Version: 6.00 Build 0)  -->
<svg version="1.1" xmlns="http://www.w3.org/2000/svg" xmlns:xlink="http://www.w3.org/1999/xlink" x="0px" y="0px"
	 viewBox="0 0 512 512" style="enable-background:new 0 0 512 512;" xml:space="preserve">
<style type="text/css">
	.st0{display:none;}
	.st1{display:inline;fill:#F4F4F4;}
	.st2{fill:none;stroke:#FFFFFF;stroke-width:30;stroke-linecap:round;stroke-miterlimit:10;}
	.st3{fill:#FFFFFF;}
</style>
<g id="圖層_2" class="st0">
	<rect x="-95" y="-69" class="st1" width="730" height="673"/>
</g>
<g id="圖層_1" focusable="false">
	<path class="st2" d="M337.5,84.7C313.1,73.9,285.7,68,256.4,68C150.3,68,68,145.6,68,250.4c0,54.8,22.5,102.2,59.2,134.9
		c6.3,5.7,5,9,6.1,44.1c0.3,8.3,7.3,14.9,15.6,14.6c1.9-0.1,3.8-0.5,5.5-1.3c40.1-17.7,40.6-19.1,47.4-17.2
		C318,457.5,444,383.1,444,250.4c0-36.6-9.9-69.9-27.4-97.7"/>
	<path class="st3" d="M369.5,208.3l-55.3,87.6c-8.4,13.2-25.9,17.1-39.1,8.7c-0.6-0.4-1.2-0.8-1.8-1.2l-44-33c-4-3-9.6-3-13.6,0
		l-59.4,45.1c-7.9,6-18.3-3.5-13-11.9l55.3-87.6c8.4-13.2,25.9-17.1,39.1-8.8c0.6,0.4,1.2,0.8,1.8,1.2l44,32.9c4,3,9.6,3,13.6,0
		l59.4-45C364.5,190.4,374.9,199.9,369.5,208.3L369.5,208.3z"/>
</g>
</svg>
