<?xml version="1.0" encoding="utf-8"?>
<!-- Generator: Adobe Illustrator 18.0.0, SVG Export Plug-In . SVG Version: 6.00 Build 0)  -->
<!DOCTYPE svg PUBLIC "-//W3C//DTD SVG 1.1//EN" "http://www.w3.org/Graphics/SVG/1.1/DTD/svg11.dtd">
<svg version="1.1" xmlns="http://www.w3.org/2000/svg" xmlns:xlink="http://www.w3.org/1999/xlink" x="0px" y="0px"
	 viewBox="0 0 50 50" enable-background="new 0 0 50 50" xml:space="preserve">
<g id="圖層_3" display="none">
	<rect display="inline" fill="#3B0104" width="50" height="50"/>
</g>
<g id="圖層_2" display="none">
	
		<path display="inline" opacity="0.3" fill="none" stroke="#FFFFFF" stroke-width="3" stroke-linecap="round" stroke-linejoin="round" stroke-miterlimit="10" d="
		M42.4,25c0,9.6-7.8,17.4-17.4,17.4S7.6,34.6,7.6,25S15.4,7.6,25,7.6c4,0,7.6,1.3,10.5,3.6C39.7,14.4,42.4,19.4,42.4,25z"/>
</g>
<g id="圖層_4">
	<path fill="none" stroke="#FFFFFF" stroke-width="3" stroke-linecap="round" stroke-linejoin="round" stroke-miterlimit="10" d="
		M35.2,10.9c0,0-3.5-3.3-10.2-3.3C17.9,7.6,7.6,13.1,7.6,25c0,12.6,11,17.4,17.4,17.4c6.7,0,17.4-4.1,17.4-17.4c0,0,0.3-2.7-0.9-5.4
		"/>
	<path fill="none" stroke="#FFFFFF" stroke-width="3" stroke-linecap="round" stroke-linejoin="round" stroke-miterlimit="10" d="
		M27.5,19.9c0,0-1.3-0.9-3.5-0.5c-2.3,0.4-5.3,2.7-4.6,6.5c0.7,4.1,4.5,5,6.5,4.6c2.1-0.4,5.7-2.2,4.6-6.5"/>
	<path fill="none" stroke="#FFFFFF" stroke-linecap="round" stroke-linejoin="round" stroke-miterlimit="10" d="M19.3,38.2"/>
	<path fill="none" stroke="#FFFFFF" stroke-linecap="round" stroke-linejoin="round" stroke-miterlimit="10" d="M10.7,27.2"/>
	<path fill="none" stroke="#FFFFFF" stroke-width="3" stroke-linecap="round" stroke-linejoin="round" stroke-miterlimit="10" d="
		M13.9,29.7c0,0,2,6.1,8.6,7.3"/>
</g>
</svg>
