<svg xmlns="http://www.w3.org/2000/svg" xmlns:xlink="http://www.w3.org/1999/xlink" viewBox="0 0 991 561.74"><defs><style>.cls-1{opacity:0.18;fill:url(#未命名漸層_18);}.cls-2{opacity:0.26;fill:url(#未命名漸層_10);}.cls-3{opacity:0.79;fill:url(#未命名漸層_10-2);}.cls-4{opacity:0.85;fill:url(#未命名漸層_14);}</style><linearGradient id="未命名漸層_18" y1="249" x2="870.17" y2="249" gradientTransform="matrix(1, 0, 0, -1, 0, 561.74)" gradientUnits="userSpaceOnUse"><stop offset="0" stop-color="#f7c963"/><stop offset="1" stop-color="#f7d5a3"/></linearGradient><linearGradient id="未命名漸層_10" y1="280.87" x2="953" y2="280.87" gradientTransform="matrix(1, 0, 0, -1, 0, 561.74)" gradientUnits="userSpaceOnUse"><stop offset="0" stop-color="#f3c38f"/><stop offset="1" stop-color="#f7a43d"/></linearGradient><linearGradient id="未命名漸層_10-2" y1="223.5" x2="814" y2="223.5" xlink:href="#未命名漸層_10"/><linearGradient id="未命名漸層_14" y1="145.04" x2="991" y2="145.04" gradientTransform="matrix(1, 0, 0, -1, 0, 561.74)" gradientUnits="userSpaceOnUse"><stop offset="0" stop-color="#f7d5a1"/><stop offset="1" stop-color="#f7c963"/></linearGradient></defs><title>資產 11</title><g id="圖層_2" data-name="圖層 2"><g id="圖層_4" data-name="圖層 4"><path class="cls-1" d="M0,63.74c85.93,132.46,172.16,176.83,237,192,129.74,30.35,192.26-51.9,371-31,54.67,6.39,221.52,25.91,256,130,30.44,91.87-61,193-74,207H0Z"/><path class="cls-2" d="M0,561.74v-547c339.3-41.46,457.69,10.8,493,79,38.07,73.51-30.34,146.3-2,240,41.77,138.08,256.55,198.9,462,228Z"/><path class="cls-3" d="M0,561.74v-447c54.36,148.91,121,197.47,174,213,70.75,20.73,99.35-22.65,216-10,48.36,5.25,139.33,23.1,225,89,48.74,37.49,48.83,85.47,108,122,34.51,21.31,68.36,29.44,91,33Z"/><path class="cls-4" d="M0,417.74c96.22-124.56,172.5-147.58,224-146,133,4.08,163,174.2,321,195,126.93,16.71,186.68-82.67,299-47,76.42,24.27,122,93.53,147,142H0Z"/></g></g></svg>